<svg xmlns="http://www.w3.org/2000/svg" viewBox="0 0 400 190" role="img" aria-label="Plan preview of L-shaped kitchen, 19 objects"><rect width="400" height="190" fill="#eeece4"></rect><rect x="123" y="18" width="154" height="154" rx="2" fill="#b8b5aa"></rect><rect x="126" y="21" width="148" height="148" fill="#c7ad8b"></rect><svg x="126" y="21" width="148" height="148" viewBox="0 0 4200 4200" overflow="hidden"><g><rect x="0" y="0" width="600" height="600" fill="#e7e3dc" stroke="#393d34" stroke-width="28.378378378378383" opacity="1"></rect></g><g><rect x="600" y="0" width="650" height="600" fill="#e7e3dc" stroke="#393d34" stroke-width="28.378378378378383" opacity="1"></rect><line x1="816.6666666666666" x2="816.6666666666666" y1="0" y2="600" stroke="#54584c" stroke-width="14.189189189189191"></line><line x1="1033.3333333333333" x2="1033.3333333333333" y1="0" y2="600" stroke="#54584c" stroke-width="14.189189189189191"></line></g><g><rect x="1250" y="0" width="700" height="600" fill="#e7e3dc" stroke="#393d34" stroke-width="28.378378378378383" opacity="1"></rect><line x1="1600" x2="1600" y1="0" y2="600" stroke="#54584c" stroke-width="14.189189189189191"></line></g><g><rect x="1950" y="0" width="600" height="600" fill="#e7e3dc" stroke="#393d34" stroke-width="28.378378378378383" opacity="1"></rect></g><g><rect x="2550" y="0" width="600" height="600" fill="#e7e3dc" stroke="#393d34" stroke-width="28.378378378378383" opacity="1"></rect><line x1="2850" x2="2850" y1="0" y2="600" stroke="#54584c" stroke-width="14.189189189189191"></line></g><g><rect x="3150" y="0" width="600" height="650" fill="#e7e3dc" stroke="#393d34" stroke-width="28.378378378378383" opacity="1"></rect><line x1="3450" x2="3450" y1="0" y2="650" stroke="#54584c" stroke-width="14.189189189189191"></line></g><g><rect x="0" y="600" width="600" height="600" fill="#e7e3dc" stroke="#393d34" stroke-width="28.378378378378383" opacity="1"></rect></g><g><rect x="0" y="1200" width="600" height="800" fill="#e7e3dc" stroke="#393d34" stroke-width="28.378378378378383" opacity="1"></rect><line x1="200" x2="200" y1="1200" y2="2000" stroke="#54584c" stroke-width="14.189189189189191"></line><line x1="400" x2="400" y1="1200" y2="2000" stroke="#54584c" stroke-width="14.189189189189191"></line></g><g><rect x="0" y="2000" width="600" height="600" fill="#e7e3dc" stroke="#393d34" stroke-width="28.378378378378383" opacity="1"></rect><line x1="300" x2="300" y1="2000" y2="2600" stroke="#54584c" stroke-width="14.189189189189191"></line></g><g><rect x="0" y="0" width="2550" height="600" fill="#e7e3dc" stroke="#393d34" stroke-width="28.378378378378383" opacity="1"></rect></g><g><rect x="0" y="600" width="630" height="2000" fill="#e7e3dc" stroke="#393d34" stroke-width="28.378378378378383" opacity="1"></rect></g><g><rect x="1515" y="470" width="170" height="220" fill="#9ca1a3" stroke="#393d34" stroke-width="28.378378378378383" opacity="1"></rect></g><g><rect x="0" y="0" width="2550" height="20" fill="#e7e3dc" stroke="#393d34" stroke-width="28.378378378378383" opacity="1"></rect></g><g><rect x="0" y="600" width="20" height="2000" fill="#e7e3dc" stroke="#393d34" stroke-width="28.378378378378383" opacity="1"></rect></g><g><rect x="600" y="0" width="650" height="350" fill="#e7e3dc" stroke="#393d34" stroke-width="28.378378378378383" opacity="0.65"></rect><line x1="925" x2="925" y1="0" y2="350" stroke="#54584c" stroke-width="14.189189189189191"></line></g><g><rect x="1250" y="0" width="700" height="350" fill="#e7e3dc" stroke="#393d34" stroke-width="28.378378378378383" opacity="0.65"></rect><line x1="1600" x2="1600" y1="0" y2="350" stroke="#54584c" stroke-width="14.189189189189191"></line></g><g><rect x="1950" y="0" width="600" height="350" fill="#e7e3dc" stroke="#393d34" stroke-width="28.378378378378383" opacity="0.65"></rect></g><g><rect x="0" y="600" width="350" height="600" fill="#e7e3dc" stroke="#393d34" stroke-width="28.378378378378383" opacity="0.65"></rect></g><g><rect x="0" y="1200" width="420" height="800" fill="#e7e3dc" stroke="#393d34" stroke-width="28.378378378378383" opacity="0.65"></rect></g></svg><text x="12" y="178" font-size="8" fill="#454b3f" font-family="Arial">4200 × 4200 mm · PLAN</text></svg>